<svg width="22" height="22" viewBox="0 0 22 22" fill="none" xmlns="http://www.w3.org/2000/svg">
<path d="M15.5939 3.29999H6.28125C4.6244 3.29999 3.28125 4.64313 3.28125 6.29999V15.7C3.28125 17.3568 4.6244 18.7 6.28125 18.7H15.5939C17.2508 18.7 18.5939 17.3568 18.5939 15.7V6.29999C18.5939 4.64313 17.2508 3.29999 15.5939 3.29999Z" fill="#F7DF1E"/>
<path d="M13.5676 15.3313C13.876 15.8378 14.2773 16.2101 14.9871 16.2101C15.5833 16.2101 15.9642 15.9104 15.9642 15.4963C15.9642 15.0001 15.5728 14.8243 14.9166 14.5356L14.5568 14.3804C13.5185 13.9355 12.8287 13.3782 12.8287 12.1999C12.8287 11.1146 13.651 10.2884 14.936 10.2884C15.8509 10.2884 16.5086 10.6086 16.9826 11.4471L15.8621 12.1706C15.6154 11.7257 15.3492 11.5505 14.936 11.5505C14.5146 11.5505 14.2474 11.8193 14.2474 12.1706C14.2474 12.6047 14.5148 12.7805 15.1322 13.0494L15.4919 13.2044C16.7145 13.7316 17.4048 14.2692 17.4048 15.4777C17.4048 16.7806 16.3871 17.4944 15.0204 17.4944C13.684 17.4944 12.8207 16.8539 12.3982 16.0145L13.5676 15.3313ZM8.48453 15.4567C8.71057 15.86 8.9162 16.201 9.41058 16.201C9.88333 16.201 10.1816 16.015 10.1816 15.2917V10.371H11.6205V15.3112C11.6205 16.8097 10.7469 17.4917 9.47183 17.4917C8.31974 17.4917 7.65254 16.8921 7.31323 16.1698L8.48453 15.4567Z" fill="black"/>
</svg>
